<svg width="21" height="22" viewBox="0 0 21 22" fill="none" xmlns="http://www.w3.org/2000/svg">
<path fill-rule="evenodd" clip-rule="evenodd" d="M19.076 0.345703H1.92397C0.875206 0.345703 0 1.22091 0 2.26967V19.4217C0 20.4705 0.875206 21.3457 1.92397 21.3457H19.076C20.1254 21.3457 21 20.4705 21 19.4217V2.26967C21 1.22091 20.1254 0.345703 19.076 0.345703ZM2.625 17.8455H6.12521V8.2207H2.625V17.8455ZM4.37541 7.08238C3.32603 7.08238 2.625 6.38135 2.625 5.50614C2.625 4.54632 3.32603 3.84591 4.37541 3.84591C5.42418 3.84591 6.12521 4.54632 6.12521 5.42153C6.12521 6.38135 5.42418 7.08238 4.37541 7.08238ZM18.375 17.8455H14.8754V12.5955C14.8754 11.1941 13.9113 10.8457 13.6525 10.8457C13.3887 10.8457 12.2504 11.0199 12.2504 12.5955V17.8455H8.75021V8.2207H12.2504V9.62276C12.7773 8.83217 13.6525 8.2207 15.3127 8.2207C16.9736 8.2207 18.375 9.5332 18.375 12.5955V17.8455Z" fill="#211E5E"/>
</svg>
