<svg width="1440" height="623" viewBox="0 0 1440 623" fill="none" xmlns="http://www.w3.org/2000/svg">
<path d="M0 0H1440V453C1440 546.888 1363.89 623 1270 623H170C76.1116 623 0 546.888 0 453V0Z" fill="#C5F5EF"/>
<path fill-rule="evenodd" clip-rule="evenodd" d="M83.8351 0L75.9948 0C142.103 27.7165 220.788 50.799 299.531 50.799C378.273 50.799 456.958 27.7165 523.066 0L515.226 0C450.768 26.3693 375.122 47.799 299.531 47.799C223.939 47.799 148.294 26.3693 83.8351 0ZM655.726 0C634.403 13.3308 604.728 30.6417 569.409 47.9521C495.71 84.0729 397.575 120.124 299.531 120.124C201.486 120.124 103.351 84.0729 29.6525 47.9521C19.2563 42.8568 9.34913 37.7614 0 32.7675L0 36.1672C8.96179 40.9352 18.4256 45.7906 28.3322 50.6459C102.2 86.8499 200.82 123.124 299.531 123.124C398.241 123.124 496.861 86.8499 570.729 50.6459C607.678 32.5366 638.468 14.4277 660.023 0.844818C660.473 0.561227 660.919 0.279607 661.361 0L655.726 0ZM768.889 0C752.214 9.32864 737.772 18.0469 726.058 25.4286C715.28 32.2204 706.81 37.8816 701.031 41.8469C698.141 43.8295 695.925 45.3882 694.429 46.4524C693.681 46.9845 693.113 47.3929 692.732 47.6689C692.541 47.8069 692.397 47.9117 692.3 47.9824L692.19 48.0626L692.162 48.0831L692.155 48.0885C692.153 48.0898 692.152 48.0907 693.002 49.2459L692.499 48.5629L692.214 48.1761L692.167 48.1126C692.151 48.0914 692.151 48.0916 692.151 48.0918L692.144 48.0963L692.119 48.1152L692.013 48.1921C691.92 48.2605 691.779 48.3631 691.591 48.4988C691.216 48.7702 690.655 49.174 689.914 49.7014C688.431 50.7561 686.228 52.3051 683.354 54.2777C677.604 58.223 669.166 63.8625 658.424 70.6315C636.939 84.1704 606.243 102.224 569.409 120.277C495.71 156.398 397.575 192.449 299.531 192.449C201.486 192.449 103.351 156.398 29.6525 120.277C19.2563 115.182 9.34913 110.086 0 105.092L0 108.492C8.96179 113.26 18.4256 118.115 28.3322 122.971C102.2 159.175 200.82 195.449 299.531 195.449C398.241 195.449 496.861 159.175 570.729 122.971C607.678 104.861 638.468 86.7526 660.023 73.1696C670.801 66.3778 679.272 60.7166 685.051 56.7513C687.94 54.7687 690.157 53.21 691.653 52.1458C692.401 51.6137 692.968 51.2053 693.35 50.9293L693.684 50.6867L693.781 50.6158L693.891 50.5356L693.919 50.5151L693.926 50.5097C693.927 50.5091 693.928 50.5086 693.832 50.3766L693.574 50.0251L693.041 49.2991C693.929 50.5076 693.93 50.5073 693.931 50.5064L693.937 50.5019L693.963 50.483L694.068 50.4061L694.244 50.2781L694.49 50.0994C694.866 49.828 695.427 49.4242 696.168 48.8969C697.651 47.8421 699.853 46.2932 702.728 44.3205C708.478 40.3752 716.916 34.7357 727.658 27.9667C740.423 19.9225 756.44 10.2846 775.064 0L768.889 0ZM935.411 0C891.538 13.3623 850.624 30.6652 815.353 47.9522C778.403 66.0616 747.613 84.1704 726.058 97.7533C715.28 104.545 706.81 110.206 701.031 114.172C698.141 116.154 695.925 117.713 694.429 118.777C693.681 119.309 693.113 119.718 692.732 119.994C692.541 120.132 692.397 120.237 692.3 120.307L692.19 120.387L692.162 120.408L692.155 120.413C692.154 120.414 692.154 120.414 692.236 120.527L692.214 120.501L692.167 120.437L692.157 120.424C692.151 120.416 692.151 120.416 692.151 120.417L692.144 120.421L692.119 120.44L692.013 120.517C691.92 120.585 691.779 120.688 691.591 120.824C691.216 121.095 690.655 121.499 689.914 122.026C688.431 123.081 686.228 124.63 683.354 126.602C677.604 130.548 669.166 136.187 658.424 142.956C636.939 156.495 606.243 174.549 569.409 192.602C495.71 228.722 397.575 264.773 299.531 264.773C201.486 264.773 103.351 228.722 29.6525 192.602C19.2563 187.506 9.34913 182.411 0 177.417L0 180.817C8.96179 185.585 18.4256 190.44 28.3322 195.296C102.2 231.5 200.82 267.773 299.531 267.773C398.241 267.773 496.861 231.5 570.729 195.296C607.678 177.186 638.468 159.077 660.023 145.494C670.801 138.703 679.272 133.041 685.051 129.076C687.94 127.093 690.157 125.535 691.653 124.471C692.401 123.938 692.968 123.53 693.35 123.254L693.684 123.011L693.781 122.941L693.891 122.86L693.919 122.84L693.926 122.834C693.927 122.834 693.928 122.833 693.832 122.701L693.574 122.35L693.041 121.624C693.929 122.832 693.93 122.832 693.931 122.831L693.937 122.827L693.963 122.808L694.068 122.731L694.244 122.603L694.49 122.424C694.866 122.153 695.427 121.749 696.168 121.222C697.651 120.167 699.853 118.618 702.728 116.645C708.478 112.7 716.916 107.06 727.658 100.291C749.143 86.7526 779.839 68.699 816.673 50.6461C854.451 32.1301 898.651 13.6326 945.969 0L935.411 0ZM1227.13 0L1237.69 0C1281.56 13.3623 1322.48 30.6652 1357.75 47.9522C1390.84 64.1725 1419 80.3924 1440 93.3601V96.888C1418.91 83.8051 1390.26 67.2253 1356.43 50.6461C1318.65 32.1301 1274.45 13.6326 1227.13 0ZM1440 165.685C1419 152.717 1390.84 136.497 1357.75 120.277C1283.88 84.073 1185.26 47.7992 1086.55 47.7992C987.84 47.7992 889.221 84.073 815.353 120.277C778.403 138.386 747.613 156.495 726.058 170.078C715.28 176.87 706.81 182.531 701.031 186.496C698.141 188.479 695.925 190.038 694.429 191.102L694.169 191.287L693.929 191.458C693.727 191.603 693.541 191.736 693.372 191.857C693.258 191.939 693.151 192.016 693.053 192.087L692.936 192.171L692.732 192.318L692.496 192.49L692.3 192.632L692.19 192.712L692.162 192.733L692.155 192.738C692.155 192.738 692.154 192.739 692.178 192.772C692.209 192.815 692.282 192.916 692.453 193.148L692.976 193.861C692.593 193.34 692.388 193.061 692.278 192.912C692.206 192.814 692.175 192.772 692.161 192.754C692.151 192.741 692.151 192.741 692.151 192.741L692.144 192.746L692.119 192.765L692.013 192.842L691.928 192.904C691.841 192.968 691.728 193.049 691.591 193.148C691.43 193.265 691.234 193.406 691.005 193.571L690.766 193.742C690.515 193.922 690.231 194.125 689.914 194.351C688.431 195.406 686.228 196.955 683.354 198.927C677.604 202.873 669.166 208.512 658.424 215.281C636.939 228.82 606.243 246.874 569.409 264.927C495.71 301.047 397.575 337.098 299.531 337.098C201.486 337.098 103.351 301.047 29.6525 264.927C19.2563 259.831 9.34913 254.736 0 249.742L0 253.142C8.96179 257.91 18.4256 262.765 28.3322 267.62C102.2 303.824 200.82 340.098 299.531 340.098C398.241 340.098 496.861 303.824 570.729 267.62C607.678 249.511 638.468 231.402 660.023 217.819C670.801 211.027 679.272 205.366 685.051 201.401C687.94 199.418 690.157 197.86 691.653 196.795C692.401 196.263 692.968 195.855 693.35 195.579C693.54 195.441 693.684 195.336 693.781 195.265L693.891 195.185L693.919 195.165L693.926 195.159C693.927 195.159 693.927 195.159 693.908 195.132L693.851 195.053L693.791 194.97C693.672 194.808 693.452 194.508 693.041 193.949L693.73 194.886C693.876 195.084 693.916 195.137 693.927 195.151C693.931 195.156 693.931 195.156 693.931 195.156L693.937 195.151L693.963 195.133L694.068 195.056C694.162 194.987 694.303 194.885 694.49 194.749L694.731 194.575C694.856 194.485 694.996 194.384 695.15 194.274C695.312 194.158 695.49 194.03 695.684 193.892L696.168 193.546C697.651 192.492 699.853 190.943 702.728 188.97C708.478 185.025 716.916 179.385 727.658 172.616C749.143 159.077 779.839 141.024 816.673 122.971C890.371 86.8501 988.507 50.7992 1086.55 50.7992C1184.6 50.7992 1282.73 86.8501 1356.43 122.971C1390.26 139.55 1418.91 156.13 1440 169.213V165.685ZM1440 238.01C1419 225.042 1390.84 208.822 1357.75 192.602C1283.88 156.398 1185.26 120.124 1086.55 120.124C987.84 120.124 889.221 156.398 815.353 192.602C778.403 210.711 747.613 228.82 726.058 242.403C715.28 249.195 706.81 254.856 701.031 258.821C698.141 260.804 695.925 262.363 694.429 263.427L694.169 263.612L693.929 263.783C693.727 263.928 693.541 264.061 693.372 264.182C693.211 264.298 693.066 264.402 692.936 264.496L692.732 264.643L692.496 264.814L692.3 264.957L692.19 265.037L692.162 265.057L692.155 265.063C692.155 265.063 692.155 265.063 692.159 265.07L692.178 265.097C692.209 265.14 692.282 265.24 692.453 265.473L692.278 265.237C692.206 265.139 692.175 265.097 692.161 265.079C692.151 265.066 692.151 265.066 692.151 265.066L692.144 265.071L692.119 265.09L692.013 265.166L691.928 265.229C691.841 265.292 691.728 265.374 691.591 265.473C691.377 265.628 691.101 265.827 690.766 266.067C690.515 266.247 690.231 266.45 689.914 266.676C688.431 267.73 686.228 269.279 683.354 271.252C677.604 275.197 669.166 280.837 658.424 287.606C636.939 301.145 606.243 319.198 569.409 337.251C495.71 373.372 397.575 409.423 299.531 409.423C201.486 409.423 103.351 373.372 29.6525 337.251C19.2563 332.156 9.34913 327.061 0 322.067L0 325.466C8.96179 330.234 18.4256 335.09 28.3322 339.945C102.2 376.149 200.82 412.423 299.531 412.423C398.241 412.423 496.861 376.149 570.729 339.945C607.678 321.836 638.468 303.727 660.023 290.144C670.801 283.352 679.272 277.691 685.051 273.726C687.94 271.743 690.157 270.184 691.653 269.12C692.401 268.588 692.968 268.18 693.35 267.904L693.583 267.735L693.781 267.59L693.891 267.51L693.919 267.489L693.926 267.484C693.927 267.484 693.927 267.483 693.908 267.457L693.851 267.378L693.791 267.295C693.714 267.189 693.593 267.024 693.404 266.768L693.73 267.211C693.93 267.482 693.93 267.481 693.931 267.481L693.937 267.476L693.963 267.457L694.068 267.38C694.162 267.312 694.303 267.209 694.49 267.074L694.731 266.9C694.856 266.81 694.996 266.709 695.15 266.599C695.312 266.482 695.49 266.355 695.684 266.216L696.168 265.871C697.651 264.816 699.853 263.267 702.728 261.295C708.478 257.35 716.916 251.71 727.658 244.941C749.143 231.402 779.839 213.349 816.673 195.296C890.371 159.175 988.507 123.124 1086.55 123.124C1184.6 123.124 1282.73 159.175 1356.43 195.296C1390.26 211.875 1418.91 228.455 1440 241.538V238.01ZM1440 310.334C1419 297.366 1390.84 281.146 1357.75 264.926C1283.88 228.722 1185.26 192.448 1086.55 192.448C987.84 192.448 889.221 228.722 815.353 264.926C778.403 283.036 747.613 301.144 726.058 314.727C715.28 321.519 706.81 327.18 701.031 331.146C698.141 333.128 695.925 334.687 694.429 335.751C693.681 336.283 693.113 336.692 692.732 336.968C692.541 337.106 692.397 337.21 692.3 337.281L692.19 337.361L692.162 337.382L692.155 337.387C692.153 337.388 692.152 337.389 693.041 338.598C692.515 337.883 692.3 337.591 692.212 337.472C692.172 337.417 692.158 337.399 692.153 337.393C692.151 337.39 692.151 337.39 692.151 337.391L692.144 337.395L692.119 337.414L692.013 337.491C691.92 337.559 691.779 337.662 691.591 337.797C691.216 338.069 690.655 338.473 689.914 339C688.431 340.055 686.228 341.604 683.354 343.576C677.604 347.522 669.166 353.161 658.424 359.93C636.939 373.469 606.243 391.523 569.409 409.576C495.71 445.696 397.575 481.747 299.531 481.747C201.486 481.747 103.351 445.696 29.6525 409.576C19.2563 404.48 9.34913 399.385 0 394.391L0 397.791C8.96179 402.559 18.4256 407.414 28.3322 412.269C102.2 448.473 200.82 484.747 299.531 484.747C398.241 484.747 496.861 448.473 570.729 412.269C607.678 394.16 638.468 376.051 660.023 362.468C670.801 355.677 679.272 350.015 685.051 346.05C687.94 344.067 690.157 342.509 691.653 341.445C692.401 340.912 692.968 340.504 693.35 340.228C693.54 340.09 693.684 339.985 693.781 339.915L693.891 339.834L693.919 339.814L693.926 339.808C693.927 339.808 693.928 339.807 693.832 339.675C693.755 339.57 693.616 339.381 693.366 339.04L693.041 338.598C693.475 339.188 693.697 339.49 693.811 339.644C693.93 339.806 693.93 339.806 693.931 339.805L693.937 339.801L693.963 339.782L694.068 339.705C694.162 339.636 694.303 339.534 694.49 339.398C694.672 339.266 694.898 339.104 695.167 338.911C695.352 338.778 695.558 338.631 695.783 338.47L696.168 338.196C697.651 337.141 699.853 335.592 702.728 333.619C708.478 329.674 716.916 324.034 727.658 317.265C749.143 303.727 779.839 285.673 816.673 267.62C890.371 231.499 988.507 195.448 1086.55 195.448C1184.6 195.448 1282.73 231.499 1356.43 267.62C1390.26 284.199 1418.91 300.779 1440 313.862V310.334ZM1440 382.659C1419 369.691 1390.84 353.471 1357.75 337.251C1283.88 301.047 1185.26 264.773 1086.55 264.773C987.84 264.773 889.221 301.047 815.353 337.251C778.403 355.36 747.613 373.469 726.058 387.052C715.28 393.844 706.81 399.505 701.031 403.47C698.141 405.453 695.925 407.012 694.429 408.076C693.681 408.608 693.113 409.016 692.732 409.292C692.541 409.43 692.397 409.535 692.3 409.606L692.19 409.686L692.162 409.707L692.155 409.712C692.155 409.712 692.154 409.712 692.159 409.719C692.164 409.727 692.175 409.742 692.198 409.774C692.273 409.878 692.48 410.16 693.041 410.923C692.515 410.207 692.3 409.915 692.212 409.797C692.151 409.715 692.151 409.715 692.151 409.715L692.144 409.72L692.119 409.739L692.013 409.816C691.92 409.884 691.779 409.987 691.591 410.122C691.216 410.394 690.655 410.797 689.914 411.325C688.431 412.38 686.228 413.929 683.354 415.901C677.604 419.846 669.166 425.486 658.424 432.255C636.939 445.794 606.243 463.847 569.409 481.9C495.71 518.021 397.575 554.072 299.531 554.072C201.486 554.072 103.351 518.021 29.6525 481.9C19.4673 476.908 9.75141 471.916 0.569837 467.02C0.667361 468.215 0.777238 469.406 0.89934 470.593C9.59424 475.208 18.7564 479.901 28.3322 484.594C102.2 520.798 200.82 557.072 299.531 557.072C398.241 557.072 496.861 520.798 570.729 484.594C607.678 466.485 638.468 448.376 660.023 434.793C670.801 428.001 679.272 422.34 685.051 418.375C687.94 416.392 690.157 414.833 691.653 413.769C692.073 413.47 692.437 413.21 692.742 412.991C692.98 412.82 693.183 412.674 693.35 412.553C693.54 412.415 693.684 412.31 693.781 412.239L693.891 412.159L693.919 412.139L693.926 412.133C693.927 412.133 693.928 412.132 693.832 412C693.726 411.856 693.505 411.554 693.041 410.923C693.929 412.131 693.93 412.131 693.931 412.13L693.937 412.125L693.963 412.106L694.068 412.03C694.162 411.961 694.303 411.859 694.49 411.723C694.672 411.591 694.898 411.428 695.167 411.236C695.266 411.164 695.371 411.089 695.482 411.01C695.578 410.941 695.678 410.869 695.783 410.794L696.168 410.52C697.651 409.466 699.853 407.917 702.728 405.944C708.478 401.999 716.916 396.359 727.658 389.59C749.143 376.051 779.839 357.998 816.673 339.945C890.371 303.824 988.507 267.773 1086.55 267.773C1184.6 267.773 1282.73 303.824 1356.43 339.945C1390.26 356.524 1418.91 373.104 1440 386.187V382.659ZM1439.99 454.977C1418.99 442.01 1390.84 425.793 1357.75 409.576C1283.88 373.372 1185.26 337.098 1086.55 337.098C987.84 337.098 889.221 373.372 815.353 409.576C778.403 427.685 747.613 445.794 726.058 459.377C715.28 466.169 706.81 471.83 701.031 475.795C698.141 477.778 695.925 479.336 694.429 480.401C693.999 480.707 693.629 480.972 693.319 481.194C693.09 481.359 692.894 481.5 692.732 481.617C692.541 481.755 692.397 481.86 692.3 481.931L692.19 482.011L692.162 482.031L692.155 482.037C692.153 482.038 692.152 482.039 693.041 483.247C692.152 482.039 692.152 482.039 692.151 482.04L692.144 482.045L692.119 482.064L692.013 482.14L691.849 482.26L691.591 482.447C691.216 482.718 690.655 483.122 689.914 483.65C688.431 484.704 686.228 486.253 683.354 488.226C677.604 492.171 669.166 497.811 658.424 504.58C636.939 518.119 606.243 536.172 569.409 554.225C509.188 583.74 432.65 613.209 353.179 623H374.155C446.635 611.017 515.58 583.948 570.729 556.919C607.678 538.81 638.468 520.701 660.023 507.118C670.801 500.326 679.272 494.665 685.051 490.7C687.94 488.717 690.157 487.158 691.653 486.094C692.401 485.562 692.968 485.154 693.35 484.878C693.54 484.74 693.684 484.635 693.781 484.564L693.891 484.484L693.919 484.463L693.926 484.458C693.927 484.458 693.927 484.457 693.921 484.448C693.911 484.434 693.888 484.402 693.832 484.325C693.726 484.181 693.505 483.879 693.041 483.247L693.749 484.21C693.93 484.456 693.93 484.455 693.931 484.455L693.937 484.45L693.963 484.431L694.068 484.354C694.162 484.286 694.303 484.183 694.49 484.048C694.587 483.978 694.696 483.899 694.817 483.812C695.166 483.56 695.617 483.237 696.168 482.845C697.651 481.79 699.853 480.241 702.728 478.269C708.478 474.324 716.916 468.684 727.658 461.915C749.143 448.376 779.839 430.323 816.673 412.27C890.371 376.149 988.507 340.098 1086.55 340.098C1184.6 340.098 1282.73 376.149 1356.43 412.27C1390.21 428.826 1418.83 445.384 1439.91 458.458C1439.95 457.301 1439.98 456.14 1439.99 454.977ZM1426.63 519.204C1407.59 507.884 1384.26 494.892 1357.75 481.901C1283.88 445.696 1185.26 409.423 1086.55 409.423C987.84 409.423 889.221 445.696 815.353 481.901C778.403 500.01 747.613 518.119 726.058 531.702C715.28 538.493 706.81 544.155 701.031 548.12C698.141 550.103 695.925 551.661 694.429 552.725C694.235 552.863 694.054 552.992 693.885 553.113C693.678 553.261 693.489 553.396 693.319 553.519C693.09 553.683 692.894 553.825 692.732 553.942C692.541 554.08 692.397 554.185 692.3 554.255L692.19 554.336L692.162 554.356L692.155 554.362C692.154 554.362 692.153 554.363 692.364 554.651C692.493 554.827 692.703 555.112 693.041 555.572C692.668 555.065 692.452 554.771 692.326 554.6C692.152 554.364 692.151 554.364 692.151 554.365L692.144 554.369L692.119 554.388L692.013 554.465L691.849 554.585L691.591 554.772C691.216 555.043 690.655 555.447 689.914 555.974C688.431 557.029 686.228 558.578 683.354 560.551C677.604 564.496 669.166 570.135 658.424 576.905C638.347 589.556 610.229 606.149 576.574 623H583.233C614.641 607.027 640.948 591.463 660.023 579.443C670.801 572.651 679.272 566.99 685.051 563.024C687.94 561.042 690.157 559.483 691.653 558.419C692.401 557.887 692.968 557.478 693.35 557.202C693.54 557.064 693.684 556.96 693.781 556.889L693.891 556.809L693.919 556.788L693.926 556.783C693.927 556.782 693.927 556.782 693.918 556.769C693.907 556.753 693.883 556.72 693.832 556.65C693.726 556.505 693.505 556.204 693.041 555.572L693.749 556.535C693.93 556.78 693.93 556.78 693.931 556.779L693.937 556.775L693.963 556.756L694.068 556.679L694.241 556.553L694.49 556.372C694.737 556.194 695.063 555.959 695.468 555.669C695.68 555.518 695.913 555.351 696.168 555.17C697.651 554.115 699.853 552.566 702.728 550.594C708.478 546.648 716.916 541.009 727.658 534.24C749.143 520.701 779.839 502.647 816.673 484.594C890.371 448.474 988.507 412.423 1086.55 412.423C1184.6 412.423 1282.73 448.474 1356.43 484.594C1383.01 497.621 1406.39 510.648 1425.42 521.979C1425.83 521.058 1426.23 520.133 1426.63 519.204ZM1391.69 571.71C1381.09 565.985 1369.75 560.105 1357.75 554.225C1283.88 518.021 1185.26 481.747 1086.55 481.747C987.84 481.747 889.221 518.021 815.353 554.225C778.403 572.335 747.613 590.443 726.058 604.026C715.28 610.818 706.81 616.479 701.031 620.445C699.643 621.397 698.411 622.251 697.339 623H702.609C702.649 622.973 702.688 622.946 702.728 622.918C708.478 618.973 716.916 613.334 727.658 606.565C749.143 593.026 779.839 574.972 816.673 556.919C890.371 520.798 988.507 484.747 1086.55 484.747C1184.6 484.747 1282.73 520.798 1356.43 556.919C1368.1 562.637 1379.15 568.355 1389.48 573.929C1390.22 573.196 1390.96 572.457 1391.69 571.71ZM1328.28 612.747C1258.68 581.67 1172.65 554.072 1086.55 554.072C991.068 554.072 895.669 588.013 822.676 623H829.667C901.694 589.083 994.163 557.072 1086.55 557.072C1170.89 557.072 1255.29 583.746 1324.15 614.195C1325.53 613.729 1326.91 613.247 1328.28 612.747ZM224.906 623H245.883C169.005 613.529 94.8738 585.644 35.6022 557.115C37.0257 558.95 38.4859 560.755 39.9817 562.529C93.0448 587.624 157.444 611.846 224.906 623ZM1440 24.5633C1428.23 17.262 1414.1 8.87159 1398.04 0L1404.21 0C1417.69 7.53803 1429.7 14.6775 1440 21.0353V24.5633ZM692.323 120.647C692.444 120.811 692.65 121.092 693.002 121.571L692.499 120.888L692.323 120.647Z" fill="#00A2A9" fill-opacity="0.05"/>
</svg>
