<svg id="Layer_1" data-name="Layer 1" xmlns="http://www.w3.org/2000/svg" viewBox="0 0 291.25 232.49"><defs><style>.cls-1{fill:#e0e7f5;opacity:0.55;}.cls-2{fill:none;stroke:#211e5e;stroke-linecap:round;stroke-miterlimit:10;stroke-width:1.5px;}.cls-3{fill:#6ee6d8;}.cls-4{fill:#fff;}.cls-5{fill:#9c9ae6;}</style></defs><title>source file [Recovered]</title><path class="cls-1" d="M69.89,125.1c-.37-16.88,9.2-28.77,20.59-30.57s23.11-.43,31.21-7,19.36-22.69,32.17-23c31.42-.68,60,46.58,60.57,74.62s-18.77,36.6-30.63,36.85-25.26-14.95-40.05-14.63-19.45,7.82-36.58,8.19S70.4,148.86,69.89,125.1Z"/><path class="cls-2" d="M98.17,125.32s10,41.43,29,31.38c16.91-9-9.83-43.72,9.75-51.3,17.67-6.83,23.84,14.67,23.5,32.67"/><polygon class="cls-3" points="160.44 149.67 168.31 137.92 152.57 137.92 160.44 149.67"/><polygon class="cls-2" points="160.44 149.67 168.31 137.92 152.57 137.92 160.44 149.67"/><rect class="cls-4" x="92.75" y="123.72" width="85.96" height="10.23" transform="translate(-40.3 65.33) rotate(-23.67)"/><rect class="cls-2" x="92.75" y="123.72" width="85.96" height="10.23" transform="translate(-40.3 65.33) rotate(-23.67)"/><polygon class="cls-5" points="192.63 103.28 165.85 97.56 178.63 126.71 192.63 103.28"/><polygon class="cls-2" points="192.63 103.28 165.85 97.56 178.63 126.71 192.63 103.28"/></svg>