<svg id="Layer_1" data-name="Layer 1" xmlns="http://www.w3.org/2000/svg" viewBox="0 0 291.25 232.49"><defs><style>.cls-1{fill:#e0e7f5;}.cls-1,.cls-3{opacity:0.55;}.cls-2{fill:#6ee6d8;}.cls-3,.cls-6{fill:#fff;}.cls-4{fill:#9c9ae6;}.cls-5{fill:none;stroke:#211e5e;stroke-linecap:round;stroke-miterlimit:10;stroke-width:1.5px;}.cls-7{fill:#00192d;opacity:0.15;}</style></defs><title>source file [Recovered]</title><path class="cls-1" d="M69.89,125.1c-.37-16.88,9.2-28.77,20.59-30.57s23.11-.43,31.21-7,19.36-22.69,32.17-23c31.42-.68,60,46.58,60.57,74.62s-18.77,36.6-30.63,36.85-25.26-14.95-40.05-14.63-19.45,7.82-36.58,8.19S70.4,148.86,69.89,125.1Z"/><path class="cls-2" d="M103.22,150.93l15-.84a.62.62,0,0,0,.42-.2l7.16-7.4a.63.63,0,0,1,.41-.19l18.12-1.45a.66.66,0,0,0,.49-.3l9.67-15.07a.69.69,0,0,1,.27-.24L168,119.3a.64.64,0,0,1,.8.24l12.83,20.53V162.7H96.37l6.33-11.45A.63.63,0,0,1,103.22,150.93Z"/><path class="cls-3" d="M181.62,140.07v3.75l-12.83-20.53a.64.64,0,0,0-.8-.24L154.79,129a.69.69,0,0,0-.27.24l-9.67,15.07a.66.66,0,0,1-.49.3l-18.12,1.45a.63.63,0,0,0-.41.19l-7.16,7.4a.61.61,0,0,1-.42.19l-15,.85a.63.63,0,0,0-.52.32l-4.25,7.69H96.37l6.33-11.44a.63.63,0,0,1,.52-.32l15-.85a.61.61,0,0,0,.42-.19l7.16-7.4a.63.63,0,0,1,.41-.19l18.12-1.45a.66.66,0,0,0,.49-.3l9.67-15.07a.69.69,0,0,1,.27-.24L168,119.3a.64.64,0,0,1,.8.24Z"/><circle class="cls-4" cx="123.92" cy="84.99" r="8.75"/><path class="cls-3" d="M125.48,93.6a9,9,0,0,1-1.56.14,8.75,8.75,0,0,1,0-17.5,9,9,0,0,1,1.56.14,8.75,8.75,0,0,0,0,17.22Z"/><path class="cls-4" d="M152.78,87a3.77,3.77,0,0,1-.53,1.93,33.28,33.28,0,0,1-17.81,14.53,1.73,1.73,0,0,0-1.19,1.63v12.31a1.78,1.78,0,0,0,1.1,1.64l8,3.24a3.32,3.32,0,0,1,2.06,3.42L142.83,141l-9.59.77.84-12.67-8.14-3.5a1.15,1.15,0,0,0-1.58.86c-.27,1.65-.78,4.57-1.53,7.89-1.14,5.07-5.86,15.42-6.06,15.84l-10.37.59,7-16.78a6.73,6.73,0,0,0,.42-1.52l1.49-10.53a23,23,0,0,0,.23-3.21V106.65s-4.8.41-10.52,9.14a4,4,0,0,1-6.84-4.29c3-5.07,10.07-14,23.11-15h6.63a10.52,10.52,0,0,0,3.47-.57c3-1,8.66-3.85,14.56-11.34a3.85,3.85,0,0,1,6.87,2.4Z"/><path class="cls-3" d="M152.47,85.48A3.82,3.82,0,0,0,148,86.63c-5.9,7.49-11.6,10.31-14.56,11.34a10.52,10.52,0,0,1-3.47.57H123.3c-13,1-20.11,9.94-23.11,15a4,4,0,0,0-.57,2.08,3.88,3.88,0,0,0,.36,1.64,3.61,3.61,0,0,1-.58-.31,4.05,4.05,0,0,1-1.26-5.46c3-5.07,10.07-14,23.11-15h6.63a10.52,10.52,0,0,0,3.47-.57c3-1,8.66-3.85,14.56-11.34a3.84,3.84,0,0,1,5.14-.82A3.75,3.75,0,0,1,152.47,85.48Z"/><path class="cls-5" d="M142.83,141l1.53-.12a.66.66,0,0,0,.49-.3l9.67-15.07a.72.72,0,0,1,.28-.24L168,119.3a.65.65,0,0,1,.81.24l12.82,20.53v22.62H96.38l6.32-11.44a.65.65,0,0,1,.53-.32l3.17-.18,10.37-.59,1.48-.08a.61.61,0,0,0,.42-.19l7.16-7.4a.65.65,0,0,1,.41-.19l7-.56Z"/><path class="cls-5" d="M106.4,150.75l7-16.78a6.73,6.73,0,0,0,.42-1.52l1.49-10.53a23,23,0,0,0,.23-3.21V106.65s-4.8.41-10.52,9.14a4,4,0,0,1-6.84-4.29c3-5.07,10.07-14,23.11-15h6.63a10.52,10.52,0,0,0,3.47-.57c3-1,8.66-3.85,14.56-11.34a3.85,3.85,0,0,1,6.87,2.4,3.77,3.77,0,0,1-.53,1.93,33.28,33.28,0,0,1-17.81,14.53,1.73,1.73,0,0,0-1.19,1.63v12.31a1.78,1.78,0,0,0,1.1,1.64l8,3.24a3.32,3.32,0,0,1,2.06,3.42L142.83,141"/><circle class="cls-5" cx="123.92" cy="84.99" r="8.75"/><path class="cls-5" d="M116.77,150.17h0c.2-.42,4.92-10.77,6.06-15.84.75-3.32,1.26-6.24,1.53-7.89a1.15,1.15,0,0,1,1.58-.86l8.14,3.5-.84,12.67"/><path class="cls-6" d="M172.8,79.26l-5.51-2.39a1,1,0,0,0-.93.07l-5.09,3.19a1,1,0,0,1-1.53-.95l.58-6a1,1,0,0,0-.36-.86l-4.6-3.86a1,1,0,0,1,.43-1.74l5.86-1.3a1,1,0,0,0,.71-.61l2.25-5.57a1,1,0,0,1,1.79-.13l3,5.17a1,1,0,0,0,.79.49l6,.42a1,1,0,0,1,.68,1.66l-4,4.5a1,1,0,0,0-.22.91l1.45,5.83A1,1,0,0,1,172.8,79.26Z"/><path class="cls-7" d="M167,60.22l-1.86,4.61a1,1,0,0,1-.71.6l-5.87,1.31a1,1,0,0,0-.42,1.74l4.6,3.86a1,1,0,0,1,.35.86l-.57,6a.65.65,0,0,0,0,.14l-1.29.81a1,1,0,0,1-1.52-.95l.57-6a1,1,0,0,0-.35-.86l-4.61-3.86a1,1,0,0,1,.43-1.74l5.86-1.31a1,1,0,0,0,.71-.6l2.25-5.57a1,1,0,0,1,1.79-.13Z"/><path class="cls-5" d="M172.8,79.26l-5.51-2.39a1,1,0,0,0-.93.07l-5.09,3.19a1,1,0,0,1-1.53-.95l.58-6a1,1,0,0,0-.36-.86l-4.6-3.86a1,1,0,0,1,.43-1.74l5.86-1.3a1,1,0,0,0,.71-.61l2.25-5.57a1,1,0,0,1,1.79-.13l3,5.17a1,1,0,0,0,.79.49l6,.42a1,1,0,0,1,.68,1.66l-4,4.5a1,1,0,0,0-.22.91l1.45,5.83A1,1,0,0,1,172.8,79.26Z"/><line class="cls-5" x1="90.16" y1="162.69" x2="194.16" y2="162.69"/></svg>