<svg id="Layer_1" data-name="Layer 1" xmlns="http://www.w3.org/2000/svg" viewBox="0 0 291.25 232.49"><defs><style>.cls-1{fill:#e0e7f5;}.cls-1,.cls-5{opacity:0.55;}.cls-2{fill:#6ee6d8;}.cls-3{opacity:0.29;}.cls-4{fill:#fff;}.cls-6{fill:none;stroke:#211e5e;stroke-linecap:round;stroke-miterlimit:10;stroke-width:1.5px;}</style></defs><title>source file [Recovered]</title><path class="cls-1" d="M217.9,139.21c.6,28-18.78,36.6-30.64,36.85s-25.25-14.95-40-14.63-19.44,7.82-36.58,8.19S73.86,148.86,73.35,125.1c-.37-16.88,9.2-28.77,20.59-30.57s23.11-.44,31.22-7,19.36-22.7,32.16-23C188.74,63.91,217.29,111.17,217.9,139.21Z"/><path class="cls-2" d="M174.28,82.88c10.19,17.83,16.18,38.5,14.27,58.94-.24,2.47-.65,4.39-2.8,5.63a73.25,73.25,0,0,1-27.49,9.19c-8.11,1-17,1.45-24.4-2.16a29,29,0,0,1-11.6,2.08c-5.38-.26-10.84-2.75-13.69-7.31a15.09,15.09,0,0,1,.67-16.14,18.4,18.4,0,0,1,14.64-7.55A23.13,23.13,0,0,1,137.59,130a21.89,21.89,0,0,1,14.51-3.8c5.3.38,10.36,2.22,15.21,4.42a80.66,80.66,0,0,1-1.13-46.34.21.21,0,0,0-.36-.19c-1.41,1.69-3.12,3.29-5.26,3.29-1.9,0-3.6-1.29-5.5-1.33-.94,0-1.88.28-2.82.21s-2-.73-2-1.68L152,81.32a1.5,1.5,0,0,1-.87-1.61,4.94,4.94,0,0,1,.77-1.89c1-1.7,2.13-3.5,3.91-4.38,2.63-1.29,5.75-.16,8.45,1a25,25,0,0,1,6.14,3.28,16.31,16.31,0,0,1,3.85,5.17Z"/><g class="cls-3"><path class="cls-4" d="M174.28,86h0a16.2,16.2,0,0,0-3.85-5.17,25,25,0,0,0-6.14-3.28c-2.7-1.14-5.82-2.28-8.45-1-1.78.88-2.89,2.68-3.91,4.38l-.14.24a1.55,1.55,0,0,1-.63-1.48,4.94,4.94,0,0,1,.77-1.89c1-1.7,2.13-3.5,3.91-4.38,2.63-1.29,5.75-.16,8.45,1a25,25,0,0,1,6.14,3.28,16.31,16.31,0,0,1,3.85,5.17h0c9.16,16,14.93,34.36,14.6,52.75C188.54,118.29,182.92,101.12,174.28,86Z"/></g><g class="cls-5"><path class="cls-4" d="M188.55,141.82c-.24,2.47-.65,4.39-2.8,5.63a73.25,73.25,0,0,1-27.49,9.19c-8.11,1-17,1.45-24.4-2.16a29,29,0,0,1-11.6,2.08c-5.38-.26-10.84-2.75-13.69-7.31a14.38,14.38,0,0,1-1.79-10.07,13.39,13.39,0,0,0,1.79,4.74c2.85,4.56,8.31,7.05,13.69,7.31a29,29,0,0,0,11.6-2.08c7.36,3.61,16.29,3.17,24.4,2.16a73.25,73.25,0,0,0,27.49-9.19c2.15-1.24,2.56-3.16,2.8-5.63.15-1.63.25-3.25.3-4.88A79.16,79.16,0,0,1,188.55,141.82Z"/></g><path class="cls-6" d="M167.31,130.61a80.66,80.66,0,0,1-1.13-46.34.21.21,0,0,0-.36-.19c-1.41,1.69-3.12,3.29-5.26,3.29-1.9,0-3.6-1.29-5.5-1.33-.94,0-1.88.28-2.82.21s-2-.73-2-1.68L152,81.32a1.5,1.5,0,0,1-.87-1.61,4.94,4.94,0,0,1,.77-1.89c1-1.7,2.13-3.5,3.91-4.38,2.63-1.29,5.75-.16,8.45,1a25,25,0,0,1,6.14,3.28,16.31,16.31,0,0,1,3.85,5.17"/><path class="cls-6" d="M137.59,130a21.89,21.89,0,0,1,14.51-3.8c5.3.38,10.36,2.22,15.21,4.42"/><path class="cls-6" d="M133.86,154.48a29,29,0,0,1-11.6,2.08c-5.38-.26-10.84-2.75-13.69-7.31a15.09,15.09,0,0,1,.67-16.14,18.4,18.4,0,0,1,14.64-7.55A23.13,23.13,0,0,1,137.59,130"/><path class="cls-6" d="M174.28,82.87h0c10.19,17.83,16.18,38.5,14.27,58.94-.24,2.47-.65,4.39-2.8,5.63a73.25,73.25,0,0,1-27.49,9.19c-8.11,1-17,1.45-24.4-2.16"/></svg>