<svg id="Layer_1" data-name="Layer 1" xmlns="http://www.w3.org/2000/svg" viewBox="0 0 291.25 232.49"><defs><style>.cls-1{fill:#e0e7f5;opacity:0.55;}.cls-2{fill:#9c9ae6;}.cls-3,.cls-5{fill:#fff;}.cls-4{fill:#6ee6d8;}.cls-5{opacity:0.39;}.cls-6{fill:#00192d;opacity:0.15;}.cls-7{fill:none;stroke:#211e5e;stroke-linecap:round;stroke-miterlimit:10;stroke-width:1.5px;}</style></defs><title>source file [Recovered]</title><path class="cls-1" d="M217.9,139.21c.6,28-18.78,36.6-30.64,36.85s-25.25-14.95-40-14.63-19.44,7.82-36.58,8.19S73.86,148.86,73.35,125.1c-.37-16.88,9.2-28.77,20.59-30.57s23.11-.44,31.22-7,19.36-22.7,32.16-23C188.74,63.91,217.29,111.17,217.9,139.21Z"/><path class="cls-2" d="M153.81,147.85V149a8.19,8.19,0,0,1-16.37,0v-1.15Z"/><path class="cls-3" d="M133.9,137.6h23.46a19.57,19.57,0,0,0-.92,5.91v2.82a1.53,1.53,0,0,1-1.52,1.52h-18.6a1.51,1.51,0,0,1-1.52-1.51v-2.91A19.35,19.35,0,0,0,133.9,137.6Z"/><path class="cls-4" d="M168.81,112.37a23.1,23.1,0,0,1-6.41,16.84,21.75,21.75,0,0,0-5,8.39H133.9a21.27,21.27,0,0,0-5-8.35,23.18,23.18,0,0,1,18.19-39.19A23.33,23.33,0,0,1,168.81,112.37Z"/><path class="cls-5" d="M153.81,147.85V149a8.19,8.19,0,0,1-8.19,8.18,7.6,7.6,0,0,1-1.92-.24A8.17,8.17,0,0,0,150,149v-1.15Z"/><path class="cls-6" d="M157.36,137.6a19.57,19.57,0,0,0-.92,5.91v2.82a1.53,1.53,0,0,1-1.52,1.52h-3.85a1.53,1.53,0,0,0,1.52-1.52v-2.82a19.57,19.57,0,0,1,.92-5.91Z"/><path class="cls-5" d="M162.4,129.21a21.75,21.75,0,0,0-5,8.39h-3.85a21.75,21.75,0,0,1,5-8.39A23.06,23.06,0,0,0,165,112.37,23.32,23.32,0,0,0,143.71,90.1a22.23,22.23,0,0,1,3.37,0,23.18,23.18,0,0,1,15.32,39.15Z"/><path class="cls-7" d="M137.44,147.85h-1.12a1.51,1.51,0,0,1-1.52-1.51v-2.91a19.35,19.35,0,0,0-.9-5.83,21.27,21.27,0,0,0-5-8.35,23.18,23.18,0,0,1,18.19-39.19,23.18,23.18,0,0,1,15.32,39.15,21.75,21.75,0,0,0-5,8.39,19.57,19.57,0,0,0-.92,5.91v2.82a1.53,1.53,0,0,1-1.52,1.52h-1.11"/><path class="cls-7" d="M153.81,147.85V149a8.19,8.19,0,0,1-16.37,0v-1.15Z"/><line class="cls-7" x1="133.9" y1="137.6" x2="157.36" y2="137.6"/><line class="cls-7" x1="145.62" y1="82.95" x2="145.62" y2="75.31"/><line class="cls-7" x1="130.01" y1="87.13" x2="126.19" y2="80.52"/><line class="cls-7" x1="118.58" y1="98.56" x2="111.97" y2="94.74"/><line class="cls-7" x1="114.4" y1="114.17" x2="106.76" y2="114.17"/><line class="cls-7" x1="118.58" y1="129.79" x2="111.97" y2="133.61"/><line class="cls-7" x1="161.24" y1="87.13" x2="165.06" y2="80.52"/><line class="cls-7" x1="172.67" y1="98.56" x2="179.28" y2="94.74"/><line class="cls-7" x1="176.85" y1="114.17" x2="184.49" y2="114.17"/><line class="cls-7" x1="172.67" y1="129.79" x2="179.28" y2="133.61"/></svg>