<svg width="7" height="5" viewBox="0 0 7 5" fill="none" xmlns="http://www.w3.org/2000/svg">
<path fill-rule="evenodd" clip-rule="evenodd" d="M3.96267 4.42217L3.9766 4.41617L6.78106 1.66973C6.92201 1.53113 7 1.34777 7 1.15242C7 0.957064 6.92201 0.773167 6.7805 0.634563C6.48914 0.349715 6.01504 0.349715 5.72479 0.635109L4.2468 2.08227L3.5 2.85435L2.7532 2.08227L1.27521 0.635655C1.13426 0.49705 0.946518 0.420654 0.747075 0.420654C0.548189 0.420654 0.360446 0.49705 0.218942 0.635109C0.0779948 0.773167 0 0.957064 0 1.15242C0 1.34777 0.0779948 1.53113 0.218942 1.66973L3.01281 4.4058L3.02396 4.41126C3.08078 4.45819 3.14485 4.49584 3.21393 4.52367C3.39499 4.59788 3.60334 4.59788 3.78663 4.52367C3.8585 4.4942 3.92479 4.45437 3.96267 4.42217Z" fill="#211E5E"/>
</svg>
