<svg width="9" height="7" viewBox="0 0 9 7" fill="none" xmlns="http://www.w3.org/2000/svg">
<path fill-rule="evenodd" clip-rule="evenodd" d="M8.94434 3.21337C8.91487 3.1415 8.87504 3.07521 8.84284 3.03733L8.83684 3.0234L6.0904 0.218942C5.9518 0.0779944 5.76845 0 5.57309 0C5.37774 0 5.19384 0.0779944 5.05524 0.219499C4.77039 0.510864 4.77039 0.984958 5.05578 1.27521L6.50294 2.7532H0.731765C0.328503 2.7532 0 3.08802 0 3.50028C0 3.69916 0.076396 3.88635 0.214455 4.02841C0.352513 4.16936 0.536409 4.2468 0.731765 4.2468H6.50294L5.05633 5.72479C4.91772 5.86574 4.84133 6.05348 4.84133 6.25292C4.84133 6.45181 4.91772 6.63955 5.05578 6.78106C5.19384 6.92201 5.37774 7 5.57309 7C5.76845 7 5.9518 6.92201 6.0904 6.78106L8.82647 3.98719L8.83193 3.97604C8.87886 3.91922 8.91651 3.85515 8.94434 3.78607C9.01855 3.60501 9.01855 3.39666 8.94434 3.21337Z" fill="#211E5E"/>
</svg>
