<svg width="50" height="50" viewBox="0 0 50 50" fill="none" xmlns="http://www.w3.org/2000/svg">
<mask id="mask0" style="mask-type:alpha" maskUnits="userSpaceOnUse" x="0" y="0" width="50" height="50">
<path fill-rule="evenodd" clip-rule="evenodd" d="M0 0H49.9998V50H0V0Z" fill="white"/>
</mask>
<g mask="url(#mask0)">
<path fill-rule="evenodd" clip-rule="evenodd" d="M24.9998 1.077C11.8088 1.077 1.07676 11.808 1.07676 25C1.07676 38.191 11.8088 48.923 24.9998 48.923C38.1908 48.923 48.9228 38.191 48.9228 25C48.9228 11.808 38.1908 1.077 24.9998 1.077ZM24.9998 50C18.3218 50 12.0438 47.4 7.32176 42.678C2.60076 37.956 -0.000244141 31.678 -0.000244141 25C-0.000244141 18.322 2.60076 12.044 7.32176 7.322C12.0438 2.6 18.3218 0 24.9998 0C31.6778 0 37.9558 2.6 42.6778 7.322C47.3998 12.044 49.9998 18.322 49.9998 25C49.9998 31.678 47.3998 37.956 42.6778 42.678C37.9558 47.4 31.6778 50 24.9998 50Z" fill="#211E5E"/>
</g>
<path fill-rule="evenodd" clip-rule="evenodd" d="M26.5614 32.8871H23.4384C22.5584 32.8871 21.7414 32.5551 21.1384 31.9521L16.9504 27.7771C15.8974 26.7241 15.3184 25.3061 15.3184 23.7841V19.7171C15.3184 19.4201 15.5594 19.1791 15.8564 19.1791C16.1544 19.1791 16.3954 19.4201 16.3954 19.7171V23.7841C16.3954 25.0191 16.8624 26.1661 17.7114 27.0151L21.8994 31.1911C22.2994 31.5901 22.8454 31.8101 23.4384 31.8101H26.5614C27.1614 31.8101 27.7114 31.5901 28.1114 31.1911L32.3414 27.0021C33.2214 26.1221 33.7064 24.9791 33.7064 23.7841V17.8951C33.7064 17.5971 33.9474 17.3571 34.2454 17.3571C34.5424 17.3571 34.7834 17.5971 34.7834 17.8951V23.7841C34.7834 25.2661 34.1864 26.6801 33.1004 27.7651L28.8714 31.9541C28.2694 32.5551 27.4494 32.8871 26.5614 32.8871Z" fill="#211E5E"/>
<path fill-rule="evenodd" clip-rule="evenodd" d="M42.5873 42.2196C42.3373 42.2196 42.1123 42.0446 42.0603 41.7896C41.6863 39.9616 40.3633 38.9166 37.6353 38.2966L33.0513 37.2026C31.4383 36.8196 30.3103 35.3676 30.3103 33.6726V29.4076C30.3103 29.1106 30.5513 28.8696 30.8493 28.8696C31.1463 28.8696 31.3873 29.1106 31.3873 29.4076V33.6726C31.3873 34.8666 32.1743 35.8876 33.3003 36.1556L37.8803 37.2476C40.0013 37.7306 42.5193 38.6596 43.1153 41.5736C43.1753 41.8646 42.9873 42.1496 42.6953 42.2086C42.6593 42.2166 42.6233 42.2196 42.5873 42.2196Z" fill="#211E5E"/>
<path fill-rule="evenodd" clip-rule="evenodd" d="M7.51686 42.2196C7.48086 42.2196 7.44486 42.2166 7.40886 42.2086C7.11786 42.1496 6.92986 41.8646 6.98886 41.5736C7.53486 38.9076 8.79686 37.8546 12.1819 37.2446L16.8029 36.1556C17.9579 35.8806 18.7969 34.8366 18.7969 33.6726V29.4076C18.7969 29.1106 19.0379 28.8696 19.3359 28.8696C19.6329 28.8696 19.8739 29.1106 19.8739 29.4076V33.6726C19.8739 35.3296 18.6869 36.8146 17.0509 37.2026L12.4139 38.2956C12.4049 38.2986 12.3959 38.3006 12.3859 38.3016C9.14286 38.8846 8.44986 39.8066 8.04386 41.7896C7.99186 42.0446 7.76686 42.2196 7.51686 42.2196Z" fill="#211E5E"/>
<path fill-rule="evenodd" clip-rule="evenodd" d="M29.4173 8.56291C28.9163 8.56291 28.4223 8.62691 27.9443 8.75491C28.1513 8.99291 28.3453 9.25491 28.5233 9.54291C28.6803 9.79591 28.6023 10.1279 28.3493 10.2839C28.0963 10.4399 27.7643 10.3619 27.6073 10.1089C26.4943 8.30791 24.5493 7.50391 21.3043 7.50391C16.8183 7.50391 14.7283 11.3789 14.7283 13.9979C14.7283 14.6119 14.9323 15.0379 15.1473 15.4889C15.6433 16.5239 15.9143 17.4189 14.8623 19.0789C18.5573 19.6539 20.4613 17.7969 22.3063 15.9969C23.9003 14.4409 25.5483 12.8339 28.1703 13.3559C28.3493 13.3909 28.4983 13.5149 28.5653 13.6839C28.9803 14.7189 30.1753 15.2139 31.5603 15.7879C32.4923 16.1739 33.4503 16.5719 34.2923 17.1819C34.8253 16.2999 35.1043 15.2969 35.1043 14.2499C35.1043 11.1139 32.5533 8.56291 29.4173 8.56291Z" fill="#6EE6D8"/>
<path fill-rule="evenodd" clip-rule="evenodd" d="M34.2922 17.182C33.4502 16.572 32.4922 16.174 31.5602 15.788C30.1752 15.214 28.9802 14.719 28.5652 13.683C28.4982 13.515 28.3492 13.391 28.1702 13.356C25.5482 12.834 23.9002 14.441 22.3062 15.996C20.4612 17.797 18.5572 19.654 14.8622 19.079C15.9142 17.419 15.6432 16.524 15.1472 15.489C14.9322 15.038 14.7282 14.612 14.7282 13.998C14.7282 11.379 16.8182 7.504 21.3042 7.504C24.5492 7.504 26.4942 8.307 27.6072 10.109C27.7642 10.362 28.0962 10.44 28.3492 10.284C28.6022 10.128 28.6802 9.796 28.5232 9.543C28.3452 9.255 28.1512 8.993 27.9442 8.755C28.4222 8.627 28.9162 8.563 29.4172 8.563C32.5532 8.563 35.1042 11.114 35.1042 14.25C35.1042 15.297 34.8252 16.3 34.2922 17.182ZM29.4172 7.486C28.6402 7.486 27.8782 7.617 27.1522 7.874C27.1152 7.888 27.0812 7.904 27.0492 7.924C25.2992 6.614 23.0292 6.427 21.3042 6.427C18.3522 6.427 16.5332 7.849 15.5272 9.042C14.3522 10.434 13.6512 12.287 13.6512 13.998C13.6512 14.857 13.9422 15.465 14.1762 15.954C14.5832 16.802 14.8512 17.362 13.5192 19.123C13.4092 19.269 13.3802 19.46 13.4422 19.631C13.5042 19.803 13.6482 19.931 13.8262 19.973C14.6752 20.171 15.4512 20.259 16.1642 20.259C19.4792 20.259 21.4332 18.353 23.0582 16.767C24.5742 15.288 25.7842 14.106 27.6962 14.367C28.3552 15.625 29.7732 16.213 31.1472 16.783C32.1792 17.21 33.2452 17.653 34.0552 18.37C34.1682 18.47 34.3182 18.518 34.4672 18.503C34.6172 18.487 34.7542 18.41 34.8442 18.289C35.7192 17.115 36.1812 15.718 36.1812 14.25C36.1812 10.52 33.1472 7.486 29.4172 7.486Z" fill="#211E5E"/>
<path fill-rule="evenodd" clip-rule="evenodd" d="M25.0512 40.2176C22.7592 40.2176 20.6152 39.9796 19.0162 39.5466C16.9752 38.9936 15.9402 38.1606 15.9402 37.0706C15.9402 36.7726 16.1802 36.5316 16.4782 36.5316C16.7752 36.5316 17.0162 36.7726 17.0162 37.0706C17.0162 38.0656 20.0882 39.1406 25.0512 39.1406C30.0132 39.1406 33.0852 38.0656 33.0852 37.0706C33.0852 36.7726 33.3262 36.5316 33.6242 36.5316C33.9212 36.5316 34.1622 36.7726 34.1622 37.0706C34.1622 38.1606 33.1272 38.9936 31.0852 39.5466C29.4862 39.9796 27.3432 40.2176 25.0512 40.2176Z" fill="#211E5E"/>
</svg>
