<svg width="64" height="64" viewBox="0 0 64 64" fill="none" xmlns="http://www.w3.org/2000/svg">
<rect width="64" height="64" rx="20" fill="#E2FFF5"/>
<path d="M13.2518 46.7481C15.0908 48.5872 18.132 48.371 19.6928 46.2903L27.189 36.2952L29.395 38.5012C31.0629 40.1693 33.7679 40.1693 35.4362 38.5012L38.513 35.4242L24.5757 21.4869L21.4989 24.5639C19.8306 26.232 19.8306 28.9368 21.4989 30.6049L23.7049 32.8109L13.7096 40.3073C11.6291 41.8676 11.4127 44.9091 13.2518 46.7481Z" fill="#00A2A9"/>
<path d="M35.9519 16.7219C33.3197 15.406 30.1407 15.9217 28.0602 18.0026L26.3178 19.7449L40.255 33.6819L52.4502 21.4869C47.8675 21.4869 43.3476 20.4199 39.2486 18.3704L35.9519 16.7219Z" fill="#00A2A9"/>
</svg>
