<svg width="64" height="64" viewBox="0 0 64 64" fill="none" xmlns="http://www.w3.org/2000/svg">
<rect width="64" height="64" rx="20" fill="#E2FFF5"/>
<path d="M32 16C23.1858 16 16 23.1729 16 32C16 35.063 16.853 37.9968 18.4685 40.5428L16.1034 46.2036C15.9225 46.6559 16 47.1729 16.3102 47.5347C16.5557 47.832 16.9176 48 17.2924 48C17.3958 48 17.4992 47.9871 17.5897 47.9612L24.8271 46.294C27.0372 47.4184 29.5057 48 32 48C40.8271 48 48 40.8271 48 32C48 23.1729 40.8271 16 32 16ZM27.4249 27.6446H32C32.7108 27.6446 33.2924 28.2262 33.2924 28.937C33.2924 29.6478 32.7108 30.2294 32 30.2294H27.4249C26.7011 30.2294 26.1325 29.6478 26.1325 28.937C26.1325 28.2262 26.7011 27.6446 27.4249 27.6446ZM36.5751 36.3554H27.4249C26.7011 36.3554 26.1325 35.7738 26.1325 35.063C26.1325 34.3522 26.7011 33.7706 27.4249 33.7706H36.5751C37.2989 33.7706 37.8675 34.3522 37.8675 35.063C37.8675 35.7738 37.2989 36.3554 36.5751 36.3554Z" fill="#00A2A9"/>
</svg>
