<svg width="64" height="64" viewBox="0 0 64 64" fill="none" xmlns="http://www.w3.org/2000/svg">
<rect width="64" height="64" rx="20" fill="#E2FFF5"/>
<path d="M20.1585 37.6001H43.4085C44.7321 37.6001 45.8085 36.5231 45.8085 35.2001V22.0001C45.8085 20.6765 44.7321 19.6001 43.4085 19.6001H20.1585C18.8349 19.6001 17.7585 20.6765 17.7585 22.0001V35.2001C17.7585 36.5231 18.8349 37.6001 20.1585 37.6001Z" fill="#00A2A9"/>
<path d="M49.163 44.6685L45.6069 39.3342C45.3843 39.0002 45.0099 38.7998 44.6085 38.7998H18.9585C18.5571 38.7998 18.1827 39.0002 17.9601 39.3342L14.404 44.6685C13.9118 45.4068 13.8662 46.3502 14.2845 47.1318C14.7028 47.9146 15.5138 48.3998 16.4009 48.3998H47.1662C48.0533 48.3998 48.8642 47.9146 49.2826 47.1319C49.7009 46.3502 49.6552 45.4069 49.163 44.6685Z" fill="#00A2A9"/>
<rect x="38.45" y="15.25" width="12.3" height="17.7" rx="2.75" fill="#00A2A9" stroke="#E2FFF5" stroke-width="1.5"/>
<circle cx="44.6" cy="29.5001" r="0.9" fill="#E2FFF5"/>
</svg>
