<svg width="64" height="64" viewBox="0 0 64 64" fill="none" xmlns="http://www.w3.org/2000/svg">
<rect width="64" height="64" rx="20" fill="#E2FFF5"/>
<path d="M21.9304 40.2724L19.5045 40.096C19.1517 40.0519 18.8429 39.8313 18.7106 39.5226L17.7844 37.3172C17.4756 36.5233 16.373 36.5233 16.0201 37.3172L15.0939 39.5226C14.9615 39.8313 14.6528 40.096 14.2999 40.096L11.8741 40.2724C11.0361 40.3606 10.6832 41.375 11.3448 41.9484L13.1973 43.5363C13.4619 43.7568 13.5942 44.1097 13.506 44.4625L12.9326 46.8002C12.7562 47.6382 13.6383 48.2998 14.3441 47.8587L16.4171 46.6237C16.7258 46.4473 17.1228 46.4473 17.3874 46.6237L19.4604 47.8587C20.1661 48.2998 21.0924 47.6382 20.8718 46.8443L20.2984 44.5066C20.2102 44.1538 20.3425 43.8009 20.6072 43.5804L22.4597 41.9925C23.1213 41.4192 22.7684 40.3606 21.9304 40.2724Z" fill="#00A2A9"/>
<path d="M37.0148 40.2724L34.589 40.096C34.2361 40.0519 33.9274 39.8313 33.795 39.5226L32.8688 37.3172C32.5601 36.5233 31.4574 36.5233 31.1045 37.3172L30.1783 39.5226C30.046 39.8313 29.7372 40.096 29.3844 40.096L26.9585 40.2724C26.1205 40.3606 25.7676 41.375 26.4292 41.9484L28.2817 43.5363C28.5464 43.7568 28.6787 44.1097 28.5905 44.4625L28.0171 46.8002C27.8407 47.6382 28.7228 48.2557 29.4285 47.8146L31.5015 46.5796C31.8102 46.4032 32.2072 46.4032 32.4718 46.5796L34.5449 47.8146C35.2506 48.2557 36.1768 47.5941 35.9563 46.8002L35.3829 44.4625C35.2947 44.1097 35.427 43.7568 35.6916 43.5363L37.5441 41.9484C38.1616 41.4192 37.8529 40.3606 37.0148 40.2724Z" fill="#00A2A9"/>
<path d="M52.5845 41.9484C53.2461 41.4192 52.8932 40.3606 52.0552 40.2724L49.6293 40.096C49.2765 40.0519 48.9677 39.8313 48.8354 39.5226L47.9092 37.3172C47.6004 36.5233 46.4978 36.5233 46.1449 37.3172L45.2187 39.5226C45.0864 39.8313 44.7776 40.096 44.4248 40.096L41.9989 40.2724C41.1609 40.3606 40.808 41.375 41.4696 41.9484L43.3221 43.5363C43.5867 43.7568 43.7191 44.1097 43.6308 44.4625L43.0575 46.8002C42.881 47.6382 43.7632 48.2557 44.4689 47.8146L46.5419 46.5796C46.8506 46.4032 47.2476 46.4032 47.5122 46.5796L49.5852 47.8146C50.2909 48.2557 51.2172 47.5941 50.9966 46.8002L50.4233 44.4625C50.335 44.1097 50.4674 43.7568 50.732 43.5363L52.5845 41.9484Z" fill="#00A2A9"/>
<path d="M31.9867 12C25.9882 12 21.0923 16.8517 21.0923 22.8943C21.0923 28.9369 25.9441 33.7887 31.9867 33.7887C38.0293 33.7887 42.881 28.9369 42.881 22.8943C42.881 16.8517 37.9852 12 31.9867 12ZM36.9266 21.6593L32.0308 26.5552C31.6779 26.908 31.2369 27.0403 30.7958 27.0403C30.3547 27.0403 29.9137 26.8639 29.5608 26.5552L27.0026 23.997C26.341 23.3354 26.341 22.2327 27.0026 21.5711C27.6642 20.9095 28.7669 20.9095 29.4285 21.5711L30.7517 22.8943L34.4566 19.1894C35.1182 18.5278 36.2209 18.5278 36.8825 19.1894C37.6323 19.8951 37.6323 20.9536 36.9266 21.6593Z" fill="#00A2A9"/>
</svg>
