<svg width="64" height="64" viewBox="0 0 64 64" fill="none" xmlns="http://www.w3.org/2000/svg">
<rect width="64" height="64" rx="20" fill="#E2FFF5"/>
<path d="M34.2084 28.9688C38.3323 28.9688 41.6928 25.6083 41.6928 21.4844C41.6928 17.3605 38.3323 14 34.2084 14C30.0845 14 26.724 17.3605 26.724 21.4844C26.724 25.6083 30.0845 28.9688 34.2084 28.9688ZM33.4599 17.8769V17.3755C33.4599 16.9638 33.7967 16.627 34.2084 16.627C34.62 16.627 34.9568 16.9638 34.9568 17.3755V17.8694C35.6079 18.1015 36.1244 18.6104 36.3489 19.299C36.4761 19.6956 36.2591 20.1148 35.8624 20.242C35.4732 20.3692 35.0466 20.1522 34.9194 19.7555C34.8221 19.4412 34.5302 19.2391 34.2084 19.2391C33.7967 19.2391 33.4599 19.5759 33.4599 19.9875C33.4599 20.3992 33.7967 20.736 34.2084 20.736C35.4433 20.736 36.4537 21.7464 36.4537 22.9813C36.4537 23.9543 35.825 24.7775 34.9568 25.0919V25.5933C34.9568 26.005 34.62 26.3418 34.2084 26.3418C33.7967 26.3418 33.4599 26.005 33.4599 25.5933V25.0994C32.8462 24.8823 32.3373 24.4033 32.1052 23.7746C31.963 23.3854 32.1576 22.9588 32.5468 22.8091C32.936 22.6595 33.3626 22.8615 33.5123 23.2507C33.6246 23.5426 33.9015 23.7372 34.2158 23.7372C34.6275 23.7372 34.9643 23.4004 34.9643 22.9888C34.9643 22.5771 34.6275 22.2403 34.2158 22.2403C32.9809 22.2403 31.9705 21.2299 31.9705 19.995C31.963 19.0071 32.5917 18.1838 33.4599 17.8769Z" fill="#00A2A9"/>
<path d="M49.9257 31.4458C49.9182 32.1119 49.6488 32.7256 49.1698 33.1896L41.139 40.8537C40.0687 41.879 38.6616 42.4404 37.1797 42.4404H31.2371C30.7431 42.4404 30.3614 42.5002 29.9797 42.6424L22.3531 34.6715L24.4488 32.7555C25.5415 31.7601 26.956 31.2137 28.4305 31.2137H34.5826C36.0271 31.2137 37.2022 32.3888 37.2022 33.8333C37.2022 34.2374 37.1049 34.6117 36.9402 34.9559H38.7589C39.4999 34.9559 40.2109 34.679 40.7648 34.185L45.8242 29.6121C46.7822 28.7214 48.2791 28.7514 49.2072 29.6869C49.6787 30.151 49.9332 30.7722 49.9257 31.4458Z" fill="#00A2A9"/>
<path d="M29.5756 44.701C29.5756 44.9031 29.4932 45.0902 29.3435 45.2249L24.576 49.7904C24.4263 49.9251 24.2467 50 24.0596 50C23.8575 50 23.6629 49.9176 23.5132 49.7679L14.2101 40.0307C14.0679 39.881 13.993 39.6939 14.0005 39.4919C14.008 39.2973 14.0903 39.1027 14.2325 38.9679L19.0001 34.4099C19.307 34.118 19.7785 34.133 20.0629 34.4324L29.3735 44.1696C29.5082 44.3193 29.583 44.5064 29.5756 44.701Z" fill="#00A2A9"/>
</svg>
