<svg width="64" height="64" viewBox="0 0 64 64" fill="none" xmlns="http://www.w3.org/2000/svg">
<rect width="64" height="64" rx="20" fill="#E2FFF5"/>
<path d="M24.2357 37.1513V38.4284C24.2357 38.6122 24.3087 38.7884 24.4386 38.9184C24.5686 39.0483 24.7448 39.1213 24.9286 39.1213H28.1429C28.4706 39.1213 28.7849 39.2515 29.0166 39.4832C29.2484 39.715 29.3786 40.0293 29.3786 40.357V45.4999C29.3786 45.8276 29.2484 46.1419 29.0166 46.3736C28.7849 46.6054 28.4706 46.7356 28.1429 46.7356H15.2857C14.958 46.7356 14.6437 46.6054 14.4119 46.3736C14.1802 46.1419 14.05 45.8276 14.05 45.4999V40.357C14.05 40.0293 14.1802 39.715 14.4119 39.4832C14.6437 39.2515 14.958 39.1213 15.2857 39.1213H21.0714H21.0715C21.2083 39.1211 21.342 39.0806 21.4559 39.0049L21.456 39.0049L24.2357 37.1513ZM25.5714 40.9499H25.5214V40.9999V42.2856V42.3356H25.5714H28.1429H28.1929V42.2856V40.9999V40.9499H28.1429H25.5714ZM15.2857 40.9499H15.2357V40.9999V42.2856V42.3356H15.2857H24.2857H24.3357V42.2856V40.9999V40.9499H24.2857H15.2857ZM19.1429 44.907H19.1929V44.857V43.5713V43.5213H19.1429H15.2857H15.2357V43.5713V44.857V44.907H15.2857H19.1429ZM20.4286 43.5213H20.3786V43.5713V44.857V44.907H20.4286H28.1429H28.1929V44.857V43.5713V43.5213H28.1429H20.4286Z" fill="#00A2A9" stroke="#E2FFF5" stroke-width="0.1"/>
<path d="M21.0715 26.8071H21.0714H15.2857C14.958 26.8071 14.6437 26.677 14.4119 26.4452C14.1802 26.2135 14.05 25.8992 14.05 25.5714V15.2857C14.05 14.958 14.1802 14.6437 14.4119 14.4119C14.6437 14.1802 14.958 14.05 15.2857 14.05H28.1429C28.4706 14.05 28.7849 14.1802 29.0166 14.4119C29.2484 14.6437 29.3786 14.958 29.3786 15.2857V25.5714C29.3786 25.8992 29.2484 26.2135 29.0166 26.4452C28.7849 26.677 28.4706 26.8071 28.1429 26.8071H24.9286C24.7448 26.8071 24.5686 26.8801 24.4386 27.0101C24.3087 27.14 24.2357 27.3162 24.2357 27.5V28.7771L21.456 26.9235L21.4559 26.9235C21.342 26.8478 21.2083 26.8074 21.0715 26.8071ZM16.7244 19.2958C16.5944 19.4257 16.5214 19.602 16.5214 19.7857V24.9286C16.5214 25.1123 16.5944 25.2886 16.7244 25.4185C16.8543 25.5484 17.0305 25.6214 17.2143 25.6214H25.3143C25.7367 25.6214 26.1419 25.4536 26.4406 25.1549C26.7393 24.8562 26.9071 24.451 26.9071 24.0286V20.6857C26.9071 20.2633 26.7393 19.8581 26.4406 19.5594C26.1419 19.2607 25.7367 19.0929 25.3143 19.0929H24.3357V17.8571C24.3357 17.1619 24.0595 16.4951 23.5679 16.0035C23.0763 15.5119 22.4095 15.2357 21.7143 15.2357C21.36 15.2357 21.0203 15.3764 20.7698 15.6269C20.5193 15.8774 20.3786 16.2172 20.3786 16.5714V18.2131L19.4989 19.0929H17.2143C17.0305 19.0929 16.8543 19.1659 16.7244 19.2958Z" fill="#00A2A9" stroke="#E2FFF5" stroke-width="0.1"/>
<path d="M17.9072 20.4787H19.0929V24.2359H17.9072V20.4787Z" fill="#00A2A9" stroke="#E2FFF5" stroke-width="0.1"/>
<path d="M40.8096 17.807H37.1428V17.857L37.1427 17.807C36.6846 17.8085 36.2349 17.9303 35.8387 18.1604C35.4509 18.3856 35.1277 18.7067 34.9001 19.0927H30.7643V16.6213H39.0713C39.4584 16.6229 39.8356 16.7441 40.1512 16.9683C40.4475 17.1787 40.6759 17.4702 40.8096 17.807Z" fill="#00A2A9" stroke="#E2FFF5" stroke-width="0.1"/>
<path d="M22.3072 20.4784V20.4284V19.1427V19.0927H22.3572H22.95V17.857C22.95 17.5293 22.8198 17.215 22.5881 16.9832C22.3682 16.7633 22.0739 16.6348 21.7643 16.6223V18.4999V18.4999C21.7643 18.6836 21.6912 18.8598 21.5613 18.9897M22.3072 20.4784L21.5259 18.9544M22.3072 20.4784H22.3572H25.3143C25.3692 20.4784 25.4219 20.5003 25.4608 20.5391C25.4996 20.5779 25.5214 20.6306 25.5214 20.6856V24.0284C25.5214 24.0834 25.4996 24.1361 25.4608 24.1749C25.4219 24.2138 25.3692 24.2356 25.3143 24.2356H20.4786V20.0724M22.3072 20.4784L20.4286 20.0517M21.5613 18.9897L21.5259 18.9544M21.5613 18.9897L21.5613 18.9897L21.5259 18.9544M21.5613 18.9897L20.4786 20.0724M21.5259 18.9544L20.4286 20.0517M20.4786 20.0724V20.0517H20.4286M20.4786 20.0724L20.4639 20.0871L20.4286 20.0517" fill="#00A2A9" stroke="#E2FFF5" stroke-width="0.1"/>
<path d="M41.2584 30.7807L41.2584 30.7808L38.4786 32.6344V31.3572C38.4786 31.1735 38.4056 30.9972 38.2757 30.8673C38.1457 30.7374 37.9695 30.6644 37.7857 30.6644H37.1429C36.8152 30.6644 36.5009 30.5342 36.2691 30.3024C36.0374 30.0707 35.9072 29.7564 35.9072 29.4287V20.4287C35.9072 20.1009 36.0374 19.7866 36.2691 19.5549C36.5009 19.3231 36.8152 19.1929 37.1429 19.1929H48.7143C49.0421 19.1929 49.3564 19.3231 49.5881 19.5549C49.8198 19.7866 49.95 20.1009 49.95 20.4287V29.4287C49.95 29.7564 49.8198 30.0707 49.5881 30.3024C49.3564 30.5342 49.0421 30.6644 48.7143 30.6644H41.6429L41.6428 30.6644C41.506 30.6646 41.3724 30.7051 41.2584 30.7807ZM43.3554 29.3343L43.3554 29.3343L46.9612 26.5109L46.9304 26.4715L46.962 26.5102C47.5375 26.0404 47.9296 25.3833 48.0699 24.6537C48.2102 23.9243 48.0897 23.1689 47.7297 22.5192C47.5342 22.1498 47.2592 21.8282 46.9247 21.5777C46.59 21.3271 46.2039 21.1537 45.7942 21.0701L45.7935 21.07C45.4033 20.9961 45.0016 21.0096 44.6172 21.1096C44.233 21.2096 43.8757 21.3936 43.5711 21.6482C43.571 21.6483 43.5709 21.6483 43.5709 21.6484L42.9284 22.1763L42.287 21.6548C42.2869 21.6547 42.2868 21.6547 42.2867 21.6546C41.982 21.3999 41.6247 21.2159 41.2403 21.1159C40.8559 21.0159 40.454 21.0024 40.0637 21.0764L40.0637 21.0764L40.0631 21.0765C39.6529 21.1599 39.2664 21.3332 38.9313 21.5839C38.5963 21.8346 38.3211 22.1565 38.1255 22.5263C37.7674 23.1754 37.6482 23.9295 37.7888 24.6575C37.9294 25.3855 38.3209 26.0412 38.8952 26.5102L38.8952 26.5102L38.896 26.5109L42.5018 29.3343L42.5018 29.3343C42.6237 29.4296 42.7739 29.4814 42.9286 29.4814C43.0833 29.4814 43.2335 29.4296 43.3554 29.3343Z" fill="#00A2A9" stroke="#E2FFF5" stroke-width="0.1"/>
<path d="M46.7357 38.4543V49.95H40.0655C39.5006 49.1403 39.191 48.1798 39.1768 47.1922C39.1625 46.1961 39.4495 45.2188 40.0002 44.3885C40.0002 44.3885 40.0002 44.3885 40.0002 44.3885L40.2893 43.958C40.3789 43.8247 40.4194 43.6644 40.4039 43.5045C40.3883 43.3446 40.3177 43.1951 40.2041 43.0816C40.2041 43.0816 40.2041 43.0816 40.2041 43.0816L36.6684 39.5459L36.6684 39.5459L36.6678 39.5453C36.5173 39.3994 36.3973 39.2251 36.3148 39.0324C36.2323 38.8397 36.1889 38.6325 36.1873 38.4229C36.1856 38.2132 36.2257 38.0054 36.3052 37.8114C36.3846 37.6174 36.5019 37.4412 36.6501 37.293C36.7983 37.1447 36.9746 37.0275 37.1685 36.948C37.3625 36.8686 37.5704 36.8285 37.78 36.8302C37.9896 36.8318 38.1968 36.8752 38.3895 36.9577C38.5822 37.0402 38.7566 37.1602 38.9024 37.3107L38.9024 37.3107L38.903 37.3113L43.7244 42.1327L43.7598 42.1681L43.7951 42.1327L44.7041 41.2237L44.7395 41.1884L44.7041 41.153L42.3357 38.7846V32.05H43.2897L45.317 34.6778L45.317 34.6779L45.319 34.6802C46.2323 35.7254 46.7357 37.0663 46.7357 38.4543Z" fill="#00A2A9" stroke="#E2FFF5" stroke-width="0.1"/>
<path d="M39.8827 36.3317L39.8827 36.3317C39.4675 35.9174 38.939 35.6353 38.3637 35.5211C37.7884 35.4069 37.1922 35.4657 36.6503 35.6901C36.1084 35.9144 35.645 36.2942 35.3188 36.7816C34.9925 37.269 34.818 37.8421 34.8171 38.4286C34.8166 38.8185 34.8934 39.2046 35.043 39.5645C35.1926 39.9245 35.4121 40.2513 35.6889 40.5258L38.8216 43.6586C38.5866 44.0204 38.3894 44.4053 38.2329 44.8073H30.7643V40.3573C30.7643 39.662 30.4881 38.9953 29.9965 38.5037C29.5049 38.012 28.8381 37.7359 28.1429 37.7359H25.6214L25.6214 35.8573L25.6214 35.8572C25.6212 35.7319 25.587 35.609 25.5224 35.5015C25.4579 35.3941 25.3654 35.3062 25.2548 35.2472C25.1443 35.1882 25.0198 35.1603 24.8946 35.1664C24.7694 35.1726 24.6483 35.2126 24.5441 35.2821C24.544 35.2821 24.544 35.2821 24.544 35.2821L23.05 36.2781V29.6508L24.544 30.648L24.544 30.648C24.6484 30.7176 24.7697 30.7576 24.895 30.7637C25.0202 30.7698 25.1448 30.7417 25.2554 30.6826C25.366 30.6234 25.4585 30.5353 25.523 30.4277C25.5874 30.3201 25.6214 30.197 25.6214 30.0716V28.193H28.1429C28.8381 28.193 29.5049 27.9168 29.9965 27.4252C30.4881 26.9336 30.7643 26.2668 30.7643 25.5716V20.4787H34.5214V29.4287C34.5214 30.124 34.7976 30.7907 35.2892 31.2823C35.769 31.7622 36.4157 32.0368 37.0929 32.0497V33.9287C37.0928 34.0541 37.1269 34.1772 37.1913 34.2848C37.2558 34.3924 37.3482 34.4805 37.4588 34.5397C37.5694 34.5989 37.694 34.6269 37.8193 34.6208C37.9446 34.6148 38.0659 34.5748 38.1702 34.5052C38.1702 34.5052 38.1702 34.5052 38.1702 34.5052L40.95 32.6516V37.399L39.8827 36.3317Z" fill="#00A2A9" stroke="#E2FFF5" stroke-width="0.1"/>
<path d="M44.4511 22.7184L44.4511 22.7184L44.4519 22.7178C44.5988 22.5922 44.7721 22.5012 44.9589 22.4514C45.1455 22.4016 45.3408 22.3943 45.5306 22.4299C45.7401 22.4751 45.9369 22.5659 46.1072 22.696C46.2776 22.8262 46.4171 22.9925 46.5157 23.183L46.5157 23.183L46.5163 23.1841C46.7159 23.5467 46.784 23.967 46.7091 24.3741C46.6343 24.7808 46.4213 25.1491 46.1061 25.4169L42.9286 27.9051L39.7511 25.4169C39.436 25.1492 39.223 24.781 39.1482 24.3744C39.0733 23.9675 39.1414 23.5472 39.3409 23.1847L39.3409 23.1847L39.3415 23.1836C39.44 22.993 39.5795 22.8265 39.7499 22.6962C39.9201 22.566 40.117 22.475 40.3265 22.4299C40.4061 22.415 40.4869 22.4073 40.5679 22.4071C40.875 22.4092 41.1715 22.5187 41.4062 22.7167L41.4062 22.7167L41.4067 22.7171L42.4886 23.6087L42.4886 23.6088C42.6126 23.7107 42.7681 23.7664 42.9286 23.7664C43.0891 23.7664 43.2446 23.7107 43.3686 23.6088L43.3686 23.6087L44.4511 22.7184Z" fill="#00A2A9" stroke="#E2FFF5" stroke-width="0.1"/>
<path d="M37.8637 46.1929C37.6726 47.4771 37.8812 48.7888 38.4609 49.9501H24.9286C24.4303 49.9501 23.9525 49.7522 23.6002 49.3999C23.2597 49.0594 23.0634 48.6016 23.0507 48.1215L28.1429 48.1215L28.143 48.1215C28.7225 48.1193 29.2849 47.9252 29.7424 47.5695C30.1896 47.2217 30.5119 46.7387 30.6614 46.1929H37.8637ZM32.6429 48.7644H32.6929V48.7144V47.4287V47.3787H32.6429H31.3571H31.3071V47.4287V48.7144V48.7644H31.3571H32.6429Z" fill="#00A2A9" stroke="#E2FFF5" stroke-width="0.1"/>
</svg>
